<?xml version="1.0" encoding="UTF-8"?>
<svg width="199px" height="36px" viewBox="0 0 199 36" version="1.1" xmlns="http://www.w3.org/2000/svg" xmlns:xlink="http://www.w3.org/1999/xlink">
    <!-- Generator: Sketch 51.3 (57544) - http://www.bohemiancoding.com/sketch -->
    <title>Group</title>
    <desc>Created with Sketch.</desc>
    <defs></defs>
    <g id="Page-1" stroke="none" stroke-width="1" fill="none" fill-rule="evenodd">
        <g id="Logotipos" transform="translate(-372.000000, -166.000000)" fill="#FFFFFF">
            <g id="Horizontal" transform="translate(99.000000, 109.000000)">
                <g id="Logo/Line/White" transform="translate(249.000000, 33.000000)">
                    <g id="Group" transform="translate(24.000000, 24.000000)">
                        <g id="Logo/Horizontal/White">
                            <path d="M5.38537198,13.5354292 C3.83411134,12.621894 2.67833694,10.9962264 3.15650024,8.41623317 C3.83411134,4.76549179 7.25540815,1.82773272 14.0221434,1.82773272 C17.8039805,1.82773272 19.674869,2.06567676 22.6205595,2.42344261 L21.6642329,7.81882367 C18.6784823,7.50184822 16.6899708,7.22481338 13.0658168,7.22481338 C10.7977374,7.22481338 9.64537234,7.86046388 9.44336752,9.05273347 C9.2456244,10.2815445 10.1209786,10.955436 12.3907627,10.955436 L19.9927922,10.955436 L19.0373179,16.350817 L11.3952284,16.350817 C9.04617661,16.350817 7.37388355,16.9864675 7.0568127,18.6546252 C6.7388895,20.4001147 8.21003008,21.0340656 10.5599342,21.0340656 C14.6588421,21.0340656 17.2866095,20.7969713 19.9927922,20.4409051 L19.0373179,25.8371359 C16.6899708,26.03259 13.9820834,26.4311462 9.60531231,26.4311462 C2.47888914,26.4311462 -0.186381193,23.2172021 0.488672886,19.2894259 C0.926776164,16.7502231 2.83687236,14.5271459 5.38537198,13.5354292 Z M37.4265752,11.2724114 L42.8380882,9.76486598 L40.9671997,20.3219331 C40.7694566,21.4725625 41.1683522,21.9484505 42.2423019,21.9484505 C42.6420498,21.9484505 43.0383884,21.8668697 43.4756393,21.7096567 L42.8005852,25.5584015 C41.2859752,26.1167202 39.7739223,26.4311462 38.3019294,26.4311462 C36.6296363,26.4311462 35.3579435,25.9535586 34.6402724,25.1207544 C33.1682795,25.9535586 31.374954,26.4311462 29.4247978,26.4311462 C23.5351214,26.4311462 21.0658895,23.0582895 21.9420961,18.1005555 C22.819155,13.1385725 26.4808119,9.76486598 32.3713406,9.76486598 C34.4800323,9.76486598 36.1923854,10.3214851 37.4265752,11.2724114 Z M28.3917605,18.1005555 C28.0320726,20.12223 28.6696236,21.6697161 31.3357463,21.6697161 C32.5707884,21.6697161 33.6464428,21.3527406 34.4408246,20.8369119 L35.3971512,15.4389815 C34.7996602,14.8832122 33.964366,14.5271459 32.7310285,14.5271459 C30.0623489,14.5271459 28.7497437,16.074632 28.3917605,18.1005555 Z M46.0940309,14.9231528 C46.6506096,11.8290305 50.590982,9.76486598 55.1296979,9.76486598 C57.7549082,9.76486598 60.1031077,10.3214851 61.5776576,10.6775513 L60.8207788,14.8050306 C58.8288579,14.3274429 56.6016908,13.9713767 55.1689056,13.9713767 C53.7744757,13.9713767 53.2579571,14.2883521 53.137777,14.8441214 C53.0193016,15.3208593 53.5358202,15.5987439 54.5714145,15.836688 C58.3140439,16.6694921 61.8154608,17.7444893 61.2188221,21.1147966 C60.5829757,24.7247476 57.0389418,26.4311462 51.9061442,26.4311462 C48.8794813,26.4311462 46.4119541,25.7190137 44.5819779,25.1207544 L45.2979444,20.9150936 C47.4867561,21.6314751 50.1145234,22.2637264 52.062975,22.2637264 C53.4974649,22.2637264 54.0540436,21.8668697 54.1341636,21.3926812 C54.2142837,20.8768526 53.8153881,20.5989679 52.5411383,20.2819925 C49.3175846,19.4483385 45.3780644,18.8517788 46.0940309,14.9231528 Z M76.8609843,10.1617226 L83.866375,10.1617226 L72.0844652,27.3047408 C68.1841528,32.9788563 64.3648127,35.3209055 60.3042602,35.3209055 C57.5580174,35.3209055 55.6479212,34.647014 54.215136,33.4938352 L55.9240797,29.2482337 C56.7602263,29.9620658 58.3523993,30.5178351 59.4672613,30.5178351 C62.6106949,30.5178351 64.5233482,29.6068493 67.5875141,24.1307373 L62.9320275,10.1617226 L69.4191949,10.1617226 L71.8850174,17.7019992 L76.8609843,10.1617226 Z M87.9823297,2.22543918 L98.0126787,2.22543918 C103.981623,2.22543918 106.369882,5.04337643 105.734036,8.49526458 C105.376053,10.3214851 104.302103,12.0669746 102.311887,13.2176039 C105.335993,14.3274429 106.488358,16.6694921 106.011899,19.2486355 C105.335993,22.9792581 101.631719,26.03259 95.3056437,26.03259 L83.8024494,26.03259 L87.9823297,2.22543918 Z M93.5532306,7.18657237 L92.8398211,11.1950796 L96.1000255,11.1950796 C97.8532909,11.1950796 98.8863282,10.4387575 99.1258361,9.16915609 C99.3627869,7.93949529 98.6084651,7.18657237 96.856052,7.18657237 L93.5532306,7.18657237 Z M92.0002652,16.0355412 L91.1257634,21.0340656 L95.82131,21.0340656 C97.9726187,21.0340656 99.2852238,20.0431986 99.6039994,18.5339536 C99.9202179,17.0671985 98.9647436,16.0355412 96.8168443,16.0355412 L92.0002652,16.0355412 Z M109.038562,11.0761076 L115.801888,9.16915609 L115.363785,11.7499991 C117.434121,10.4786981 120.580112,9.56856215 121.972837,9.56856215 L120.979007,15.3616497 C119.345069,15.3616497 116.361876,15.7168661 114.490987,16.6694921 L112.857902,26.03259 L106.411647,26.03259 L109.038562,11.0761076 Z M121.587579,18.1005555 C122.461228,13.1385725 126.603605,9.76486598 133.089068,9.76486598 C139.57794,9.76486598 142.523631,13.1385725 141.648277,18.1005555 C140.77207,23.0582895 136.634807,26.4311462 130.147639,26.4311462 C123.65621,26.4311462 120.713077,23.0582895 121.587579,18.1005555 Z M128.037243,18.1005555 C127.6392,20.12223 128.234134,21.6697161 130.902814,21.6697161 C133.570641,21.6697161 134.802274,20.12223 135.199465,18.1005555 C135.600065,16.1145726 134.962514,14.5271459 132.294686,14.5271459 C129.627711,14.5271459 128.434434,16.1145726 128.037243,18.1005555 Z M146.158013,2.62144605 L153.004016,0.717043941 L150.458926,15.122006 C154.477713,14.7259992 156.427017,13.1759637 156.627318,10.1617226 L163.31308,10.1617226 C163.033513,14.2475617 160.088674,16.7102825 156.507137,18.1396463 C157.541879,18.774447 158.020043,19.6862826 158.576621,20.8369119 C158.894545,21.5125031 159.212468,22.3436076 160.56769,22.3436076 C160.963176,22.3436076 161.362072,22.2637264 161.801027,22.108213 L161.123416,25.875377 C159.930991,26.232293 158.377174,26.4311462 156.864268,26.4311462 C154.355829,26.4311462 153.323644,25.0026322 152.966513,24.1307373 C152.009334,21.7478977 151.411843,20.3219331 149.65943,19.6047018 L148.547125,26.03259 L142.058253,26.03259 L146.158013,2.62144605 Z M163.298591,18.1005555 C164.25577,12.7417159 168.954726,9.76486598 175.558664,9.76486598 C180.53463,9.76486598 183.162398,12.0270339 183.162398,14.3690831 C183.162398,17.0671985 180.135735,19.7661638 173.768748,19.7661638 C172.053837,19.7661638 170.621905,19.5290695 169.54966,19.2486355 C169.348507,21.6697161 171.14098,22.303667 174.124174,22.303667 C176.872973,22.303667 178.543562,21.7478977 181.090357,20.7187897 L180.416155,24.7247476 C178.266551,25.6382827 176.23457,26.4311462 172.298459,26.4311462 C165.649347,26.4311462 162.423236,22.9792581 163.298591,18.1005555 Z M170.544341,15.9157194 C171.539876,16.155363 172.814126,16.312576 174.402889,16.312576 C176.473226,16.312576 177.270164,15.7168661 177.270164,14.964793 C177.270164,14.2475617 176.356455,13.6535514 174.84355,13.6535514 C172.935158,13.6535514 171.302073,14.4880551 170.544341,15.9157194 Z M185.519121,11.0761076 L192.283299,9.16915609 L191.8469,11.7499991 C193.91468,10.4786981 197.061523,9.56856215 198.453395,9.56856215 L197.459566,15.3616497 C195.82648,15.3616497 192.839878,15.7168661 190.969841,16.6694921 L189.338461,26.03259 L182.892206,26.03259 L185.519121,11.0761076 Z" id="Combined-Shape-Copy"></path>
                        </g>
                    </g>
                </g>
            </g>
        </g>
    </g>
</svg>